# xmcd
#
# Track frame offsets: 
#        150
#        28827
#        44332
#        78050
#        93477
#        127278
#        154596
#        181320
#        206155
#        228943
#        251372
#        276293
#        299011
#        320460
#        341172
#
# Disc length: 4800 seconds
#
# Revision: 0
# Processed by: cddbd v1.5.2PL0 Copyright (c) Steve Scherf et al.
# Submitted via: ExactAudioCopyFreeDBPlugin 1.0
#
DISCID=dd12be0f
DTITLE=Teddy Pendergrass - The Music of Teddy Pendergrass:  The Box Se
DTITLE=t Series
DYEAR=2010
DGENRE=Soul
TTITLE0=The Love I Lost (as lead vocalist of Harold Melvin and The Blue 
TTITLE0=Notes)
TTITLE1=Satisfaction Guaranteed (Or Take Your Love Back)  (as lead voc
TTITLE1=alist of Harold Melvin and The Blue Notes)
TTITLE2=Be for Real (as lead vocalist of Harold Melvin and The Blue Note
TTITLE2=s)
TTITLE3=If You Don't Know Me By Now (as lead vocalist of Harold Melvin
TTITLE3=and The Blue Notes)
TTITLE4=Wake Up Everybody (as lead vocalist of Harold Melvin and The Blu
TTITLE4=e Notes)
TTITLE5=Don't Leave Me This Way (as lead vocalist of Harold Melvin and T
TTITLE5=he Blue Notes)
TTITLE6=Shout and Scream
TTITLE7=It's You I Love
TTITLE8=Can't We Try
TTITLE9=Love T.K.O.
TTITLE10=Feel the Fire (duet with Stephanie Mills)
TTITLE11=If You Know Like I Know
TTITLE12=I'll Never See Heaven Again
TTITLE13=Is it Still Good to Ya
TTITLE14=Medley (Live):  If You Don't Know Me By Now - The Love I Lost
TTITLE14=Bad Luck - Wake Up Everybody
EXTD=
EXTT0=
EXTT1=
EXTT2=
EXTT3=
EXTT4=
EXTT5=
EXTT6=
EXTT7=
EXTT8=
EXTT9=
EXTT10=
EXTT11=
EXTT12=
EXTT13=
EXTT14=
PLAYORDER=
